/* XPM */
static char *_ab9a371fe2d4302a1e49b06988d303dwXd8Egjlq2VQgkvQ[] = {
/* columns rows colors chars-per-pixel */
"64 64 256 2 ",
"   c black",
".  c #0000A8",
"X  c #00A800",
"o  c #00A8A8",
"O  c #A80000",
"+  c #A800A8",
"@  c #A85400",
"#  c gray66",
"$  c gray33",
"%  c #5454FC",
"&  c #54FC54",
"*  c #54FCFC",
"=  c #FC5454",
"-  c #FC54FC",
";  c #FCFC54",
":  c gray99",
">  c #ECECEC",
",  c gainsboro",
"<  c #D0D0D0",
"1  c #C0C0C0",
"2  c #B4B4B4",
"3  c gray66",
"4  c #989898",
"5  c gray55",
"6  c #7C7C7C",
"7  c gray44",
"8  c #646464",
"9  c gray33",
"0  c #484848",
"q  c gray22",
"w  c #2C2C2C",
"e  c #202020",
"r  c #FC0000",
"t  c #EC0000",
"y  c #E00000",
"u  c #D40000",
"i  c #C80000",
"p  c #BC0000",
"a  c #B00000",
"s  c #A40000",
"d  c #980000",
"f  c #880000",
"g  c #7C0000",
"h  c #700000",
"j  c #640000",
"k  c #580000",
"l  c #4C0000",
"z  c #400000",
"x  c #FCD8D8",
"c  c #FCB8B8",
"v  c #FC9C9C",
"b  c #FC7C7C",
"n  c #FC5C5C",
"m  c #FC4040",
"M  c #FC2020",
"N  c #FC0000",
"B  c #FCA85C",
"V  c #FC9840",
"C  c #FC8820",
"Z  c #FC7800",
"A  c #E46C00",
"S  c #CC6000",
"D  c #B45400",
"F  c #9C4C00",
"G  c #FCFCD8",
"H  c #FCFCB8",
"J  c #FCFC9C",
"K  c #FCFC7C",
"L  c #FCF85C",
"P  c #FCF440",
"I  c #FCF420",
"U  c #FCF400",
"Y  c #E4D800",
"T  c #CCC400",
"R  c #B4AC00",
"E  c #9C9C00",
"W  c #848400",
"Q  c #706C00",
"!  c #585400",
"~  c #404000",
"^  c #D0FC5C",
"/  c #C4FC40",
"(  c #B4FC20",
")  c #A0FC00",
"_  c #90E400",
"`  c #80CC00",
"'  c #74B400",
"]  c #609C00",
"[  c #D8FCD8",
"{  c #BCFCB8",
"}  c #9CFC9C",
"|  c #80FC7C",
" . c #60FC5C",
".. c #40FC40",
"X. c #20FC20",
"o. c #00FC00",
"O. c #00FC00",
"+. c #00EC00",
"@. c #00E000",
"#. c #00D400",
"$. c #04C800",
"%. c #04BC00",
"&. c #04B000",
"*. c #04A400",
"=. c #049800",
"-. c #048800",
";. c #047C00",
":. c #047000",
">. c #046400",
",. c #045800",
"<. c #044C00",
"1. c #044000",
"2. c #D8FCFC",
"3. c #B8FCFC",
"4. c #9CFCFC",
"5. c #7CFCF8",
"6. c #5CFCFC",
"7. c #40FCFC",
"8. c #20FCFC",
"9. c #00FCFC",
"0. c #00E4E4",
"q. c #00CCCC",
"w. c #00B4B4",
"e. c #009C9C",
"r. c #008484",
"t. c #007070",
"y. c #005858",
"u. c #004040",
"i. c #5CBCFC",
"p. c #40B0FC",
"a. c #20A8FC",
"s. c #009CFC",
"d. c #008CE4",
"f. c #007CCC",
"g. c #006CB4",
"h. c #005C9C",
"j. c #D8D8FC",
"k. c #B8BCFC",
"l. c #9C9CFC",
"z. c #7C80FC",
"x. c #5C60FC",
"c. c #4040FC",
"v. c #2024FC",
"b. c #0004FC",
"n. c #0000FC",
"m. c #0000EC",
"M. c #0000E0",
"N. c #0000D4",
"B. c #0000C8",
"V. c #0000BC",
"C. c #0000B0",
"Z. c #0000A4",
"A. c #000098",
"S. c #000088",
"D. c #00007C",
"F. c #000070",
"G. c #000064",
"H. c #000058",
"J. c #00004C",
"K. c #000040",
"L. c #282828",
"P. c #FCE034",
"I. c #FCD424",
"U. c #FCCC18",
"Y. c #FCC008",
"T. c #FCB400",
"R. c #B420FC",
"E. c #A800FC",
"W. c #9800E4",
"Q. c #8000CC",
"!. c #7400B4",
"~. c #60009C",
"^. c #500084",
"/. c #440070",
"(. c #340058",
"). c #280040",
"_. c #FCD8FC",
"`. c #FCB8FC",
"'. c #FC9CFC",
"]. c #FC7CFC",
"[. c #FC5CFC",
"{. c #FC40FC",
"}. c #FC20FC",
"|. c #FC00FC",
" X c #E000E4",
".X c #C800CC",
"XX c #B400B4",
"oX c #9C009C",
"OX c #840084",
"+X c #6C0070",
"@X c #580058",
"#X c #400040",
"$X c #FCE8DC",
"%X c #FCE0D0",
"&X c #FCD8C4",
"*X c #FCD4BC",
"=X c #FCCCB0",
"-X c #FCC4A4",
";X c #FCBC9C",
":X c #FCB890",
">X c #FCB080",
",X c #FCA470",
"<X c #FC9C60",
"1X c #F0945C",
"2X c #E88C58",
"3X c #DC8854",
"4X c #D08050",
"5X c #C87C4C",
"6X c #BC7848",
"7X c #B47044",
"8X c #A86840",
"9X c #A0643C",
"0X c #9C6038",
"qX c #905C34",
"wX c #885830",
"eX c #80502C",
"rX c #744C28",
"tX c #6C4824",
"yX c #5C4020",
"uX c #543C1C",
"iX c #483818",
"pX c #403018",
"aX c #382C14",
"sX c #28200C",
"dX c #600064",
"fX c #006464",
"gX c #006060",
"hX c #00001C",
"jX c #00002C",
"kX c #302410",
"lX c #480048",
"zX c #500050",
"xX c #000034",
"cX c gray11",
"vX c #4C4C4C",
"bX c gray36",
"nX c gray25",
"mX c gray19",
"MX c #343434",
"NX c #D8F4F4",
"BX c #B8E8E8",
"VX c #9CDCDC",
"CX c #74C8C8",
"ZX c #48C0C0",
"AX c #20B4B4",
"SX c #20B0B0",
"DX c #00A4A4",
"FX c #009898",
"GX c #008C8C",
"HX c #008484",
"JX c #007C7C",
"KX c #007878",
"LX c #007474",
"PX c #007070",
"IX c #006C6C",
"UX c #980088",
/* pixels */
"sXsXsXsXsXL.L.w w w w w w w w w w w w w w w w w w w w L.L.L.L.L.L.L.L.kXkXkXkXkXe L.L.L.w w w w w w w L.L.e kXkXkXkXkXkXL.w w cX",
"sXuXuXuXuXyX$ bXbXbXbXbXbXbXbXbXbXbXbXbXbXbXbXbXbXbXbXbXbXbXbXbXbXbX$ vX0 yXyXyXyXyX0 vXvX$ $ $ $ $ $ vXyXyXyXyXyXyXyXyXvX$ bXe ",
"sXyXyXyXtXrX8 4 7 7 7 7 7 7 7 4 7 7 7 7 7 7 7 4 7 7 7 7 7 7 7 4 7 7 7 8 bXbX$ 6 rXrXrXrXrX$ bX6 $ $ rXrXrXrXrX6 $ rXrXrXbX7 8 e ",
"sXeXeXwXqX6 7 7 6 5 5 5 5 5 8 6 5 5 5 5 5 5 7 7 5 5 5 5 5 5 7 5 5 5 5 5 5 6 eXqX7 9XqXqXqX7 rXwX7 qXqXwXwXqXrXeXqXqX9X7 6 5 7 e ",
"sX7X7X6X5 5 7 8X6X4 # # # 5 eX6 4 # # # # 4 7 8X5X# # # 4 8X7 5 # # # # # 5 rXqX5 6X7X6X6X9XtXwX7X8X@ @ @ wXtXwX6X6X5 4 4 # 7 cX",
"kX# # 2 2 # 8 nXnXnXnXnXnXnXnXnXnXnXnXnXnXnXnXnXnXnXnXnXnXnXnXnXpXnXq q q q MXpXpXpXpXpXpXpXpXpXpXkXkXsXsXsXkXsXaXuX# 2 1 1 6 cX",
"kX2 # 2 1 1 # 5 5 8 yXtXtXtXtXtXtXtXtXyXyXyXyXyXyXuXuXyXyXyXuXuXuXuXuXuXuXuXuXuXtXtXeXeXF tXtXF F F F wX0XeXD D F aX2 1 1 1 6 cX",
"kX2 7X< 1 1 1 4 4 wXeX9XeXeXeXeXeXrXbXtXtXtXtXrXrXbXeXrXrXtXtXrXtXtXtXeXeXeXeXrXF F qXD D @ D eXeX0X0XqXS 7X7X8XD pX2 # , 1 6 cX",
"kX6X0X8X2 1 1 4 4 wXqXrXwXwXwXwXwXeXbXrXrXrXrX$ $ eXrXtXtXtXtXrXeXrXeXrXrXeXrXF F F 6XD D 8X7XeX0X0X0X0XD 8X0X7X7XiX4 5 7X1 6 cX",
"kX# 7X6X2 1 # 4 5 qXeXeXeXwXwXeXeXtXbXrXrXrXrXwXwXrXrXtXtXtXtXeXrXeXeXwXwXqXF F 8XF 6XD D 8XD D D 7X7X7XA 7X0X7X0XiX2 4X5X1 6 cX",
"kX# 4 4 1 1 # 5 5 wXeXeXeXwXeXeXeXtX$ rXtXrXrXwXwXrXrXtXtXtXtXtXF eXrXwXwXqXF F 8X7X6XD D D @ @ @ 6X7X7X0X7X8X7X0XiX2 2 2 1 6 cX",
"kX2 4 # 1 1 # 6 7 eXeXeXeXeXrXrXrXtXrXrXtXrXeXwXwXrXrXtXtXyXF eXF wXwX9X0XqXF D 7X6X5X7X7X4X0X8XC 6X6X6X9X7X7X7XeXiX1 1 1 1 6 cX",
"kX2 4 # 1 1 # 7 7 eXeXeXeXwXwXrXrXtX$ rXeXwXwX8 bXrXrXtXrXyXF eXF qX7XqXqX7XF 7X6X6X4X6X5X3X4X4X7X5X6X7X8X6X7X5XwXiX1 1 1 1 6 cX",
"kX2 4 # 1 1 # 7 7 eXeXrXeXrXrXrXrXtXbXbXeX8 wX8 8 rXrXrXrXeXF eXF 0X7XqX6X6XD 6X4X4X3X# 3X:X4 3X6X5 6X7X8X6X4X8XeXuX1 1 1 1 6 cX",
"kX2 4 # 1 1 # 7 7 eXwXeXrX$ $ $ $ bX7 7 wX8 wX7 8 bXrXeXwXeXF wXF 8X7XqX6X5X0X4X3X4 :X3X:X2 # 3X3X# 4 4 6X6X4X7XeXyX1 1 1 1 6 cX",
"kX2 8X< 1 1 # 7 7 eX8 $ bXbXbXbXbX8 7 7 wX8 wX7 8 8 wXqXwXeXF wXD 8X8X6X6X5X8X4X# 4 # # 1 1 2 2 # # # 4 5X7X6X3XwXq 1 4 , 1 6 cX",
"kX5 wX0X1 1 4 7 7 eXbXbXbXbXbXbX8 7 7 7 wX8 wX7 8 7 7 qXqXwX@ wXD 4X4X6X6X5X8X4X=X# 1 1 1 1 1 2 2 2 # # 5X6X2X7XqXnX# 6 5 1 6 cX",
"kX2 0X8X1 1 4 7 7 bXbXbXbXbXbX8 8 7 7 7 wX8 wX7 7 7 9X9XqXF D 0XD 5X4X6X6X5X6X3X1 # 1 2 1 < < 2 2 1 2 4 6X6X6X4 9XnX1 5X4 1 6 cX",
"kX2 5X4X1 1 4 8 8 bXbXbXbXbXbX8 8 7 7 7 wX8 qX7 6 7 9X9XqX9X@ 9XS 5X4X6X8X7X6X,X< 2 1 1 1 < < < 1 1 1 # 5 6X# # qXnX1 2 # 1 6 cX",
"kX2 4 # 1 1 4 7 8 bXbXbXbX8 8 8 7 7 7 7 8 7 qX6 7 6 6 8X7X8X@ 5XS 5X3X5X7X3X7X4X1 < 1 1 1 < < < 1 1 1 2 5 6X# # 9XnX1 2 1 1 6 cX",
"L.2 # # 1 1 4 8 8 bXbXbXbX8 8 8 7 7 7 7 7 8 9X6 7 6 7X5X7X8X0X6X6X4X4X4X2 3X7X1X< < 1 1 1 < < < 1 2 < 2 5 6X# 4 9XnX1 2 1 1 6 cX",
"w 1 # # 2 1 4 8 8 bXbX8 8 8 8 7 7 7 7 7 5 6 0X6 6 4 6X5X3X4X4X4X5X3X3X>X1 1 4X2X< < < 1 1 1 1 1 1 , 1 1 6X6X# 4 9XnX1 1 1 1 6 cX",
"mX1 1 2 2 1 4 8 8 bXbX8 8 7 7 7 7 7 6 7 5 6 qX6 5 4 # 4 # # # # 4X4 4 4 1 2 3X3X< , < < 1 1 2 2 # 2 1 1 2 2 9X7XwXnX1 1 1 1 6 cX",
"mX1 # < 2 < # 8 8 bX8 8 7 7 7 7 7 6 6 5 5 6 8X6 # 4 # 2 2 2 2 2 2 # 2 2 < 2 2X3X1 , , < 1 1 1 1 # 1 1 1 2 5X6X7XwXMX1 6X, 1 6 cX",
"mX# 5 7X1 < # 8 7 7 7 7 7 7 7 7 7 6 5 5 4 5 6 4 # 1 1 1 2 2 2 2 1 2 1 < 1 2 2X3X1 < , < 1 2 1 # 1 1 1 1 # 6X7XqXqXMX# eX5 # 6 cX",
"mX1 4 4 1 < # 8 7 7 7 7 7 7 7 7 6 5 5 5 4 5 4 4 # 1 1 1 1 1 1 2 2 2 1 2 1 2 2X3X1 < < 1 2 1 # 1 2 1 1 4 6X6X7XqXeXq 1 4 # # 6 cX",
"mX1 2 2 1 < # 7 7 7 7 7 7 7 6 5 5 5 4 4 # 4 4 4 1 1 1 1 1 1 1 2 1 1 1 < 1 2 2X3X1 < < 1 1 1 # 2 1 1 2 5 6X6XqXqXeXq 1 # # 6 7 cX",
"mX1 2 2 1 < # 7 7 7 7 7 7 6 7 mX7 7 7 7 7 8 $ eX6 1 1 1 1 2 2 2 1 1 1 < < 2 3X# 1 1 1 2 4 4 4 # 2 4 4 5 9X9XqXwXrXq # # 4 7 7 cX",
"mX1 2 2 1 < # 7 7 7 7 7 7 5 7 e nXbXvXvXvX0 nXyXwX1 1 1 1 2 1 1 1 1 1 < < < # # < 1 1 # 4 # 4 # 2 4 4 6 6X9XwXwXrXq # 4 5 7 7 cX",
"mX1 1 2 1 < # 7 7 Q Y Y R 5 7 e vXnXvXvXvX0 q 0 wX1 1 , 2 2 1 1 1 1 , < , < < 1 1 2 2 # 4 # # # 4 4 6 8X9XqXwXtXrXq 4 5 5 7 7 cX",
"mX1 1 1 1 < # 7 nXQ Y Y bX5 7 e vXvXvXvXvXvX0 vX7 1 , < 1 1 1 1 1 1 < < , < 1 1 1 2 2 # 4 # 6X5 4 4 6 8XqXeXeXtXrXq 5 5 5 9X7 cX",
"mX1 6X=X1 < # 8 mXe Y Y 5 4 6 e vXvXvXvXvXvXvX$ 6 < , < , 1 1 1 1 1 , < , < 1 1 2 2 2 # # # 6X5 5 5 6 qXqXeXtXtXrXq 7 8 4 qX7 cX",
"mX# 0X0X1 < # 8 7 nXY Y 5 4 6 e vXvXvXvXvXvXvXvX6 < , , < 1 1 1 1 , , < < 1 # # 2 2 2 # 6X6X6X6 5 5 7 qXrXrXtXtXtXq 6 bXrXwX7 cX",
"mX1 6XS 1 1 4 7 6 vXY R 4 # 5 e vXvXW R R Y vX$ 5 , , , < , 1 1 , , < < < 1 # # 2 2 2 5 6X6X9X5 5 5 6 wXrXrXtXtXtXMX6 6 0X9X8 cX",
"mX1 ,X,X# 4 5 7 5 vXY R # # 5 e vXmXW     R vXbX4 , , , < < < < < < 1 < < # # # 2 2 2 5 6X6X9X6 6 7 7 bXrXrXtXtXtXMX6 6 8X6X8 cX",
"mX1 # 3X4 4 5 7 5 vXY R # # 5 e vXmXW     R vX7 1 , , , , , , , , < < < 2 # # # 2 4 4 5 6X9X9X9X6 7 8 bXrXrXtXtXtXMX7 6 6X4 8 cX",
"mX1 # 3X4 4 5 7 4 $ Y R # # 5 e vXcXQ w w R bX5 < , , , , < < < < 1 1 2 # # # # 1 4 4 4 8X9XqX7 8 8 8 8 rXrXtXyXyXMX6 6X4X6XbXcX",
"mX1 # 3X4 4 5 7 4 bXW W # 1 5 e vXcXQ Q W W 8 4 < , , , , , < 1 1 1 # # # # 2 5 # # 5 5 9XqXqX$ 8 8 7 8 rXrXtXtXyXMX4 # 8X6XbXcX",
"mX1 # 3X4 4 5 6 # bXW W 1 1 5 e vXe sXL.mX$ 7 # < , , , , , , 1 1 2 2 # # 2 2 4 # 5 # 5 6 qXeX$ 8 8 7 8 8 rXtXtXvXMX2 6X7X6XeXcX",
"mX1 5X-X4 4 5 6 4 aX! ! 7 1 5 e vXvXpXuXpXbX6 # < , , , , < < 2 2 2 2 2 2 2 4 4 4 5 5 6 8 rXrXbX8 8 7 7 8 bX$ $ $ q 4 9X;X# eXcX",
"mX# 6X6X4 4 5 7 0 kXsXsX6 1 4 e 0 vXpXiXl tX4 1 , , , , , < < 2 2 2 2 2 4 # 4 4 4 5 6 6 7 bXbXbX8 8 7 7 bXbXbXbX$ q 5 0X@ # rXcX",
"mX1 4 4 4 4 5 8 0 w aXwX1 1 4 e 0 0 iXuXiX9X1 # < , , , < < 2 2 2 2 2 2 # # 5 6 4 5 5 8 8 8 8 8 8 7 8 8 8 bXbXbX$ q 4 7XD # rXcX",
"mX1 2 2 4 4 5 7 8 7 9X5X1 1 4 e nX0 uXyXF # 5 6 # , < < < 1 1 1 1 1 4 # # 5 6 6 5 7 7 8 8 8 8 8 8 7 8 8 8 8 bXbXbXq 2 # 5X2 wXcX",
"mX1 # 3X4 4 5 7 7 # 6X6X1 < 4 cXkXL.kXkXpXiXnXmX4 , < < 1 1 1 1 1 1 # # # # 6 6 5 7 8 8 8 8 8 8 8 bX8 8 8 8 8 bXbXq 2 # 3X1 wXcX",
"mX1 # 3X4 # 5 5 # 1 6X6X1 < 1 8X8XqXF F f F 0X8X< < 1 1 1 1 1 1 # # # # 5 5 7 7 8 7 8 8 8 7 8 8 bXbX8 8 8 8 8 7 bXnX1 2 # 1 8 cX",
"mX1 2 3X# # # # 1 2 9X7X1 , , 1 3X1 3X3X6X3X3X2 < < 1 1 1 1 1 # # # # 4 5 5 7 8 7 7 8 8 8 7 7 bXbX8 8 8 8 8 7 7 bXnX1 2 # 1 7 cX",
"mX1 2 2 1 < < 1 1 2 3X4X1 , , 1 6X2 3X3X3X3X4X# < 1 1 1 1 1 1 # # 4 4 4 5 5 bXbX7 7 8 8 8 8 8 8 8 8 8 8 8 7 7 8 8 nX1 2 # 1 7 cX",
"mX1 4 < 1 < < 1 1 1 3X2 < , , 1 6X>X3X3X>X6X6X2 1 1 1 1 1 # # # # 4 4 5 5 6 rXeX7 7 8 8 8 8 8 8 8 8 8 8 7 7 8 8 8 q 1 5 ;X1 7 cX",
"mX# 6X6X1 < < 1 < 2 # 2 , , , , 7X3X3X3X>X5X>X# 1 1 1 1 1 # # # 4 4 4 5 7 7 bX8 7 7 8 8 bX8 8 8 8 8 8 7 7 8 bXrXrXpX4 9X9X1 7 cX",
"mX1 4X4X1 < < 1 < 1 3X1 , , , , 3X3X>X3X3X6X4X# 1 2 1 # # # 5 4 4 5 6 6 7 7 7 7 7 7 8 bXbX8 8 8 8 8 7 7 8 8 rXrXrXpX2 7X8X1 7 cX",
"mX1 1 1 1 < , < , 1 3X1 , , , , 3X3X1 3X3X7X5X4 2 2 1 # # 4 # 4 5 5 6 7 7 7 7 7 7 7 bXbXbX8 8 8 8 7 7 7 8 bXrXwXrXpX# 5X4X1 7 cX",
"mX1 1 1 1 < , < , 1 3X1 , , , < 3X3X2 6X6X6X6X# 2 2 # # 4 4 4 5 5 7 7 7 7 7 7 7 8 8 8 8 8 8 8 8 7 7 7 7 7 8 wXwXrXpX# 5X5X1 7 cX",
"mX1 1 1 1 < , , , 1 1 1 , , , < 3X3X2 3X3X2 6X# 4 4 # # 4 4 5 6 6 7 7 7 7 7 7 7 8 8 8 8 8 8 8 7 7 7 7 7 7 8 7 qXeXpX# 3X4X1 7 cX",
"mX1 1 1 1 < , , , , , , , , , 1 3X3X4 3X3X2 6X# # # 4 4 4 5 5 6 7 7 7 7 7 7 bX8 8 8 8 8 8 8 7 7 7 7 8 8 7 6 7 9XqXaX# 4 4 1 7 cX",
"mX1 1 1 2 1 , , , , , , , , < 2 5X7X4 3X3X2 4 # # 4 4 4 5 5 6 7 7 7 7 7 7 7 bX8 8 8 8 bXbX8 8 8 8 8 bX8 wXqXqXwXrXkX4X4X# 1 7 cX",
"w 2 4 < 2 1 , , , , , , , , < 1 0X8X# 3X3X2 4 # 4 # 4 4 5 6 7 7 7 7 7 7 7 bXbXbXbXbX$ $ bXbXbXrXrXrXrXqX9XwX0XqXtXsX6X8X< 1 7 cX",
"w 5 9XF 1 < , , , , , , < < 1 2 0X8X4 6X8X5 4 # 4 4 5 6 6 7 7 7 7 7 7 7 8 bXbXbX$ vXtXrXrXrXrXrXrXwXqXqXqXwXeXqXtXsXqXqXqX1 7 cX",
"L.# 8X3X1 < , , , , , , , , < 1 7X5X# 3X3X# 2 1 1 1 1 # # # # 4 4 # # # 4 5 5 6 6 8X6X6X6X5 5 5 5 5 5 # 4 5X6X6XF kX6X9X8X1 7 cX",
"L.# 3X3X1 < , , < < < < < < < 1 7X@ 3X3X# 2 < < < < < 1 1 # # # # # # 1 1 1 1 1 4 2 # # # # # # # # # # # 4X4X5X6XeX3X4X2 1 7 cX",
"w 2 ,X3X1 1 < 1 1 2 # 2 1 1 1 2 8X0X5X7X4 2 2 1 1 1 # 4 5 5 5 5 5 5 5 # 1 2 4 5 4 2 # # # # # # # # # # # 4 4 4X4X4 2 3X2 1 7 cX",
"w 1 # 3X1 1 1 , 1 1 2 2 1 1 # ;X7X0X4 4 4 2 4 , 1 # 4 5 5 7 8 # 6 5 4 2 2 4 5 , 2 2 2 2 2 2 4 < 2 2 # 4 4 4 7X< # # # 3X# 2 7 cX",
"mX1 2 >X1 2 4 5 2 1 2 2 1 # 4 qX7X0X# # 2 4 5 5 4X4 5 5 0X0XF rX6X# 1 1 # 5 5 8X# 2 2 2 2 4 5 8X# 2 2 2 2 5 0X0X3X# 2 # # 1 7 cX",
"nX1 1 2 2 1 # 4X2 1 1 1 1 1 # 5 7X4 # 2 2 2 # 4 5 5 5 5 5 5 6 7X4 1 1 # 5 # # 4 2 1 1 1 1 1 # 4 2 1 1 1 1 2 6X6X2 2 1 # 2 2 7 e ",
"nXpXq nXnXnXnXnXnXnXnXnXnXnXnXq pXpXq q q q nXnXnXnXnXnXnXnXnXnXnXnXnXnXnXnXnXnXnXnXnXnXnXnXnXnXnXnXnXnXnXq pXpXpXq q pXpXq q MX"
};
