/* XPM */
static char *fb7164677f2d4328ea007b5f7bcb0653jzLTSz5XbKgzrhdS[] = {
/* columns rows colors chars-per-pixel */
"64 64 256 2 ",
"   c black",
".  c #0000A8",
"X  c #00A800",
"o  c #00A8A8",
"O  c #A80000",
"+  c #A800A8",
"@  c #A85400",
"#  c gray66",
"$  c gray33",
"%  c #5454FC",
"&  c #54FC54",
"*  c #54FCFC",
"=  c #FC5454",
"-  c #FC54FC",
";  c #FCFC54",
":  c gray99",
">  c #ECECEC",
",  c gainsboro",
"<  c #D0D0D0",
"1  c #C0C0C0",
"2  c #B4B4B4",
"3  c gray66",
"4  c #989898",
"5  c gray55",
"6  c #7C7C7C",
"7  c gray44",
"8  c #646464",
"9  c gray33",
"0  c #484848",
"q  c gray22",
"w  c #2C2C2C",
"e  c #202020",
"r  c #FC0000",
"t  c #EC0000",
"y  c #E00000",
"u  c #D40000",
"i  c #C80000",
"p  c #BC0000",
"a  c #B00000",
"s  c #A40000",
"d  c #980000",
"f  c #880000",
"g  c #7C0000",
"h  c #700000",
"j  c #640000",
"k  c #580000",
"l  c #4C0000",
"z  c #400000",
"x  c #FCD8D8",
"c  c #FCB8B8",
"v  c #FC9C9C",
"b  c #FC7C7C",
"n  c #FC5C5C",
"m  c #FC4040",
"M  c #FC2020",
"N  c #FC0000",
"B  c #FCA85C",
"V  c #FC9840",
"C  c #FC8820",
"Z  c #FC7800",
"A  c #E46C00",
"S  c #CC6000",
"D  c #B45400",
"F  c #9C4C00",
"G  c #FCFCD8",
"H  c #FCFCB8",
"J  c #FCFC9C",
"K  c #FCFC7C",
"L  c #FCF85C",
"P  c #FCF440",
"I  c #FCF420",
"U  c #FCF400",
"Y  c #E4D800",
"T  c #CCC400",
"R  c #B4AC00",
"E  c #9C9C00",
"W  c #848400",
"Q  c #706C00",
"!  c #585400",
"~  c #404000",
"^  c #D0FC5C",
"/  c #C4FC40",
"(  c #B4FC20",
")  c #A0FC00",
"_  c #90E400",
"`  c #80CC00",
"'  c #74B400",
"]  c #609C00",
"[  c #D8FCD8",
"{  c #BCFCB8",
"}  c #9CFC9C",
"|  c #80FC7C",
" . c #60FC5C",
".. c #40FC40",
"X. c #20FC20",
"o. c #00FC00",
"O. c #00FC00",
"+. c #00EC00",
"@. c #00E000",
"#. c #00D400",
"$. c #04C800",
"%. c #04BC00",
"&. c #04B000",
"*. c #04A400",
"=. c #049800",
"-. c #048800",
";. c #047C00",
":. c #047000",
">. c #046400",
",. c #045800",
"<. c #044C00",
"1. c #044000",
"2. c #D8FCFC",
"3. c #B8FCFC",
"4. c #9CFCFC",
"5. c #7CFCF8",
"6. c #5CFCFC",
"7. c #40FCFC",
"8. c #20FCFC",
"9. c #00FCFC",
"0. c #00E4E4",
"q. c #00CCCC",
"w. c #00B4B4",
"e. c #009C9C",
"r. c #008484",
"t. c #007070",
"y. c #005858",
"u. c #004040",
"i. c #5CBCFC",
"p. c #40B0FC",
"a. c #20A8FC",
"s. c #009CFC",
"d. c #008CE4",
"f. c #007CCC",
"g. c #006CB4",
"h. c #005C9C",
"j. c #D8D8FC",
"k. c #B8BCFC",
"l. c #9C9CFC",
"z. c #7C80FC",
"x. c #5C60FC",
"c. c #4040FC",
"v. c #2024FC",
"b. c #0004FC",
"n. c #0000FC",
"m. c #0000EC",
"M. c #0000E0",
"N. c #0000D4",
"B. c #0000C8",
"V. c #0000BC",
"C. c #0000B0",
"Z. c #0000A4",
"A. c #000098",
"S. c #000088",
"D. c #00007C",
"F. c #000070",
"G. c #000064",
"H. c #000058",
"J. c #00004C",
"K. c #000040",
"L. c #282828",
"P. c #FCE034",
"I. c #FCD424",
"U. c #FCCC18",
"Y. c #FCC008",
"T. c #FCB400",
"R. c #B420FC",
"E. c #A800FC",
"W. c #9800E4",
"Q. c #8000CC",
"!. c #7400B4",
"~. c #60009C",
"^. c #500084",
"/. c #440070",
"(. c #340058",
"). c #280040",
"_. c #FCD8FC",
"`. c #FCB8FC",
"'. c #FC9CFC",
"]. c #FC7CFC",
"[. c #FC5CFC",
"{. c #FC40FC",
"}. c #FC20FC",
"|. c #FC00FC",
" X c #E000E4",
".X c #C800CC",
"XX c #B400B4",
"oX c #9C009C",
"OX c #840084",
"+X c #6C0070",
"@X c #580058",
"#X c #400040",
"$X c #FCE8DC",
"%X c #FCE0D0",
"&X c #FCD8C4",
"*X c #FCD4BC",
"=X c #FCCCB0",
"-X c #FCC4A4",
";X c #FCBC9C",
":X c #FCB890",
">X c #FCB080",
",X c #FCA470",
"<X c #FC9C60",
"1X c #F0945C",
"2X c #E88C58",
"3X c #DC8854",
"4X c #D08050",
"5X c #C87C4C",
"6X c #BC7848",
"7X c #B47044",
"8X c #A86840",
"9X c #A0643C",
"0X c #9C6038",
"qX c #905C34",
"wX c #885830",
"eX c #80502C",
"rX c #744C28",
"tX c #6C4824",
"yX c #5C4020",
"uX c #543C1C",
"iX c #483818",
"pX c #403018",
"aX c #382C14",
"sX c #28200C",
"dX c #600064",
"fX c #006464",
"gX c #006060",
"hX c #00001C",
"jX c #00002C",
"kX c #302410",
"lX c #480048",
"zX c #500050",
"xX c #000034",
"cX c gray11",
"vX c #4C4C4C",
"bX c gray36",
"nX c gray25",
"mX c gray19",
"MX c #343434",
"NX c #D8F4F4",
"BX c #B8E8E8",
"VX c #9CDCDC",
"CX c #74C8C8",
"ZX c #48C0C0",
"AX c #20B4B4",
"SX c #20B0B0",
"DX c #00A4A4",
"FX c #009898",
"GX c #008C8C",
"HX c #008484",
"JX c #007C7C",
"KX c #007878",
"LX c #007474",
"PX c #007070",
"IX c #006C6C",
"UX c #980088",
/* pixels */
"q q q q q q q q q q q q q q q q q q q q q q q q q q q q q q q q q q q q q q q q q q q q q q q q q q q q q q q q q q q q q q q q ",
"0 0 0 0 0 0 $ 0 0 0 0 $ 0 0 0 $ q $ 0 0 0 0 $ 0 0 q q 0 0 0 $ $ $ $ $ 0 0 0 0 0 0 $ $ $ $ $ 0 0 0 0 0 0 $ 0 0 0 0 $ 0 0 0 $ q $ ",
"9X9X9X9X9X7X$ 0 eX9X9X9X9X9X9X7X7Xq eXwXwX9X9X9X9X9X9X9X7X7X7X7X7X7X7Xq 0 eX9X9X9X9X9X9X9X9X9X9X9X9X9X7X$ 0 eX9X9X9X9X9X9X9X9X9X",
"eXuXeXyXyX9X$ L.iXuXeXuXeXyXeXeX9X0 iXuXpXeXyXeXyXeXyXyXyXuXeXiXyXeX9X0 L.pXrXeXuXrXuXeXrXuXeXuXeXyXyX9X$ L.iXuXeXuXeXyXeXeXeXyX",
"eXuXyXeXF B U U U U U U U U U U U U U U U U U U U U U U U U U U U U U U U U U U U U U U U U U U U U U U U U U U U J G uXeXyXeXyX",
"eXuXuXeXaXZ B B B B B B B B B B B B B B B B B B B B B B B B B B B B B B B B B B B B B B B B B B B B B B B B B B B U J uXeXyXeXyX",
"uXuXkXuXaXA Z F F F F F F F F F F F F F F F F F F F F F F F F F F F F F F F F F F F F F F F F F F F F F F F F F F B U pXyXeXyXyX",
"e e L.L.aXA B L.L.L.L.L.L.L.L.L.L.L.L.L.L.L.L.L.L.L.L.L.L.L.L.L.L.L.L.L.L.L.L.L.L.L.L.L.L.L.L.L.L.L.L.L.L.L.L.L.F B U L.L.L.L.L.",
"q 0 0 0 aXA B u.u.u.y.t.r.r.r.r.r.t.t.t.t.t.t.t.t.t.t.t.t.t.t.t.t.t.t.t.t.t.t.t.t.t.t.r.e.w.w.w.e.r.r.r.t.y.y.L.F B U 0 q q q $ ",
"9X9X9X7XaXA B t.y.y.y.t.r.e.q.q.9.v b b b = = = = = = = = m m m m m = = = = = = b b b v 8.0.q.q.q.q.w.q.e.r.y.L.F B U wXwXwXwX9X",
"yXeXwX9XaXA B e.t.t.t.r.r.e.9.v b = = = = = m m m m m m r m r m r m r m m m m m = = = = = b v 8.q.q.q.w.q.e.r.L.F B U yXyXyXeXyX",
"yXeXuX9XaXA B q.e.e.r.r.e.w.= b b b = b = = = m m m m m m r m r m r m m m m m = = = b = b b b = 0.w.w.q.w.q.w.L.F B U yXyXyXyXeX",
"yXeXwX9XaXA B 0.0.w.w.w.w.= b b b b b = b = m = = m m m r m r m r m m m m m = m = b = b b b b b = e.w.w.q.0.w.L.F B U yXuXiXeXuX",
"pXyXeXwXaXA B 8.0.0.0.0.= M = b b b = b = = = m m m m m m r m r m r m m m m m = = = b = b b b = M = w.q.0.9.w.L.F B U yXkXiXwXuX",
"L.L.q 0 aXA B q.9.0.0.0.g y r = b = r i i a a a a a a a a a a a a a a a a a a a a i i r = b = r y g w.9.9.q.e.L.F B U L.L.L.L.L.",
"q nX0 0 aXA B 8.9.9.9.0.k g y r r a i $ $ $ r.e.e.e.e.r.t.y.0 0 0 0 y.t.r.r.r.r.t.y.y.i a r r y g k 0.0.9.w.e.L.F B U 0 q 0 $ $ ",
"wXwXwXwXaXA B 0.9.8.9.9.g k d a g a $ $ r.u.r.r.e.e.r.t.y.0 0 0 0 0 0 0 y.y.t.t.t.y.y.$ a g a d k g r.9.0.q.r.L.F B U 9X9X7X7X$ ",
"yXiXeXuXaXA B 0.0.8.8.= a a k g k k $ $ 4 : , 6 r.r.t.y.8 4 : : , 1 8 0 0 0 6 1 : : 2 t.k k g k a a = w.9.0.r.L.F B U rXeXwX7Xq ",
"iXyXiXeXaXA B 0.0.0.= = = y a k k k $ 1 : 1 7 $ t.t.t.7   0 7 , : , 1 0 0 u.0 $ 6 2 : , $ k k a y = = = e.0.t.L.F B U kXeXwXwX0 ",
"yXiXiXyXaXA B q.e.= b b = = y d g $ $ : 1 7 sXq y.y.7 , : : 4 : : : 1 u.u.u.0 L.$ 6 2 : , $ d y = = b b = e.y.L.F B U kXeXuXwX$ ",
"yXrXiXyXaXA B w.r = = b b = = $ $ 4 , , 7 L.sX$ u.y.7 7 7 7 8 4 > 1 1 u.u.u.$ L.L.$ 6 2 : e.$ = = b b = = r y.L.F B U yXeXuXwX$ ",
"kXkXkXkXaXA B e.g r = = b b u.$ 4 1 : 1 L.L.sX8 $ u.u.u.u.q 6 4 1 , 6 u.u.0 $ L.L.L.$ 4 : , e.r.b b = = r g y.L.F B U iXiXrXeX0 ",
"L.q q L.aXA B e.g y r = = u.e.e.4 : , 4 q L.sX5 6 u.u.u.$ 6 # # , , 8 u.6 $ 6 L.L.L.$ 6 , : e.e.r.= = r y g y.L.F B U L.L.q 0 0 ",
"wXwX9X9XaXA B w.g a y r M $ e.r.4 : , 5 q q sX6 5 u.$ 6 5 1 1 > > , 6 6 6 # $ $ pXL.L.8 2 : e.e.$ M r y a g y.L.F B U wXwXwXwXwX",
"yXeXeXeXaXA B q.r.d a y g k $ t.4 : , 6 0 q L.8 2 5 6 4 , : : : : : : > 1 # $ L.L.L.L.$ 4 : u.$ k g y a d y.t.L.F B U 9XrXeXwXeX",
"uXrXyXeXaXA B 0.q.r.d a h g k $ 4 : , 6 0 q L.L.8 5 6 4 , : : : : : : , # $ L.L.L.q L.$ 4 : $ k g h a d y.e.r.L.F B U eXrXyXyXeX",
"yXrXyXeXaXA B 0.0.q.r.d k h k k 4 : , 6 $ 0 L.L.L.8 8 4 1 > > > > > : # $ L.L.L.q L.L.$ 4 : k k h k d y.e.0.e.L.F B U eXrXyXyXeX",
"yXyXeXrXaXA B 0.0.0.q.k k k k k 4 : , 5 8 0 L.L.L.L.q 6 # 1 1 1 1 1 , $ L.L.q q L.L.L.$ 4 : k k k k k r.0.9.w.L.F B U eXyXyXyXeX",
"iXiXiXiXaXA B q.q.0.q.y y a a k 4 : , 4 8 $ q e e e q 8 6 # # # # 1 1 $ L.L.L.L.L.L.L.$ 4 : k g d a y 0.9.9.w.L.F B U kXkXkXpXpX",
"q q L.e aXA B w.w.q.w.m y y a k 4 : , 4 7 0 L.L.L.e q $ 6 6 6 6 6 # , $ L.L.L.L.L.0 q $ 4 1 k d a y m 9.9.9.e.L.F B U L.L.L.L.L.",
"wXwXwXwXaXA B q.w.w.= m y y y k 4 : , 2 6 8 $ q L.e q $ 8 $ $ $ $ 4 1 $ L.L.L.0 0 q q $ 2 1 k a y y m = 9.9.r.L.F B U 9X9X9X7Xq ",
"iXeXeXyXaXA B q.q.= b = m y g $ 4 < , 1 4 6 $ q q q q 7 $ 0 0 0 0 6 1 $ L.L.q q q q q 8 : 5 $ g y m = b = 0.t.L.F B U eXyXeX9X$ ",
"kXeXpXyXaXA B q.q.y = b = g $ u.4 2 : , 2 4 $ 0 0 q 8 5 7 L.L.L.L.8 # $ u.u.L.q q L.q 6 : $ u.$ g = b = y r.t.L.F B U iXeXyX9X0 ",
"rXpXyXpXaXA B q.q.a r = g $ u.u.7 # : , 1 2 7 q q 0 7 2 5 L.L.L.L.6 2 7 u.u.u.L.q L.q 2 1 u.$ $ u.g = r a e.e.L.F B U yXeXeX9Xq ",
"kXeXpXyXaXA B q.w.g d r g g k u.t.4 1 , , 1 8 q q q 6 2 5 e e e e 5 < 6 u.u.u.L.L.q 8 : 5 u.$ k g g r d g w.w.L.F B U iXeXeX9Xq ",
"kXkXkXkXaXA B w.q.t.h d g g k k u.7 4 : , , 0 q q q 5 2 < e e e e 4 < 5 L.u.u.L.q q # < $ $ k k g g d h y.q.w.L.F B U iXiXiXeX$ ",
"e L.L.e aXA B e.w.e.t.k k k k g k $ 7 2 : , q q q q 5 2 , e e e e # < # L.u.u.u.q 8 : 5 $ k g k k k k y.e.q.e.L.F B U L.L.L.0 q ",
"9X7X0 $ aXA B e.e.r.e.r.t.y.g f g k $ 7 2 : q u.q u., , , 4 e e e , , , $ u.u.L.q 1 5 $ k g f g u.y.r.e.q.0.r.L.F B U wX9X9X9X9X",
"eX9X0 0 aXA B r.r.e.= m g g y.g a f k $ 7 2 u.u.u., 5 , 5 5 , 5 : 5 , 5 , 0 u.L.6 4 $ k f a g q g g m = 0.w.t.L.F B U iXeXpXeXyX",
"yX9XnX0 aXA B t.e.= b = a a g g a a k u.u.u.u.u.Q E E R R T T T T T T T T B C $ $ $ $ k a a g g a a = b = e.t.L.F B U yXeXpXyXeX",
"kX9XnX0 aXA B r.= m = b = g g g k a f j u.u.u.rXW R Y I K K J J H H H H H K I B $ $ j f a k g g g = b = m = y.L.F B U yXiXyXrXyX",
"kXeX$ 0 aXA B t.u y m m g g k k g k g k u.u.rX! W E E R T m p p p m ; ; J H K I B $ k g k g k k g g m m y u y.L.F B U iXiXpXrXyX",
"mXq $ 0 aXA B t.g a y y g u.u.u.k k g k t.y.u.uX! uXF uXp p p p   p p R ; R T Z u.$ k g k k u.y.u.g y y a g u.L.F B U L.L.L.L.L.",
"$ $ $ $ aXA B t.u.g g a a g u.u.u.k k y.t.r.y.uX! uXW h p   l p g   p m H R I Z $ u.$ k k u.y.u.g a a g g y.u.L.F B U q q q $ q ",
"9X9X9X9XaXA B q.r.y.u.k k k g g g g y.t.r.e.t.uX! uXW f   g   l   l p p H R I Z u.$ $ u.g g g g k k k y.y.r.y.L.F B U wXwXwXwXwX",
"eXyXeXwXaXA B q.r.t.t.y.y.u.k k k k k u.t.r.y.uX! uXW p p p l   l p p p H R I Z $ u.u.k k k k k y.t.t.r.w.w.y.L.F B U yXyXyXyXeX",
"iXyXeXuXaXA B r.t.t.= p g u.u.u.k f g k u.y.u.uX! uXW f p l   l   g   p H R I Z u.u.k g f k y.y.t.g p = b w.t.L.F B U yXyXyXyXyX",
"yXyXeXwXaXA B t.e.= = y y p g g g d f g k y.y.uX! uXW h p   g p l   p m H R I Z u.k g f d g g g p y y = b b t.L.F B U yXyXuXiXeX",
"rXpXyXeXaXA B e.= = b = y g g g a a d f k y.y.uX! uXW uXh p   p p p p R H R I Z u.k f d a a g g g y = b = = t.L.F B U uXyXkXiXwX",
"L.L.L.q aXA B e.p y m b g $ $ g g a a g k y.y.uX! uXW uXQ h p p p m K R H R I Z u.k g a a g g u.u.g b m y p y.L.F B U L.L.L.L.L.",
"q q nX0 aXA B r.e.p a y k d $ t.t.g g k u.u.uX! tXtXE W R T Y I I K : J : H K V Z u.k g g u.u.u.d k y a p t.u.L.F B U $ 0 q 0 $ ",
"wXwXwXwXaXA B r.r.e.p k k k k k u.r.r.t.y.u.uXuXrXrXrXrXuXF F F F F V F F Z ! Q D t.t.t.t.u.k k k k k p t.e.y.L.F B U 9X9X9X7Xq ",
"iXeXeXyXaXA B t.r.r.t.t.g a a d k y.t.t.y.uX! tXtXE W R T Y I I K K : : H : K K V Z r.r.t.k d a a g y.y.e.r.y.L.F B U eXyXeX9X$ ",
"kXeXpXyXaXA B t.t.t.g g g g g a g y.y.y.u.uXuXrXrXrXrXuXuXF F F F F Z V F F Z ! Q D e.r.t.g a g g g g g u.y.y.L.F B U iXeXyX9X0 ",
"rXpXyXpXaXA B t.t.t.t.r.r.r.g g u.u.u.u.uX! tXtXW W R R T Y I I K K : : H H : K K V Z t.y.u.g g q u.u.u.u.u.u.L.F B U yXeXeX9Xq ",
"kXeXpXyXaXA B t.t.t.t.r.e.r.t.y.u.u.u.u.uXuXtXrXrXrXuXuXuXF F F F F Z Z V F F Z Z Q D y.u.y.u.u.u.u.u.u.u.u.u.L.F B U iXeXeX9Xq ",
"kXkXkXkXaXA B B B B B B B B B B B B B B B B B B B B B B B B B B B B B B B B B B B B B B B B B B B B B B B B B B Z B U iXiXiXeX$ ",
"e L.L.e aXA A A A A A A A A A A A A A A A A A A A A A A A A A A A A A A A A A A A A A A A A A A A A A A A A A A A B U L.L.L.0 q ",
"9X7X0 $ aXaXaXaXaXaXaXaXaXaXaXaXaXaXaXaXaXaXaXaXaXaXaXaXaXaXaXaXaXaXaXaXaXaXaXaXaXaXaXaXaXaXaXaXaXaXaXaXaXaXaXaXaXaXB wX9X9X9X9X",
"eX9X0 0 L.eXyXiXeXyXyXeXrXiXeXpXeXyXeXiXuXeXuXpXeXiXeX9X0 q iXuXeXeXiXiXeXrXiXeXiXyXeXeXiXeXeX9X0 0 L.eXyXiXeXyXyXeXrXiXeXpXeXyX",
"yX9XnX0 L.yXrXyXeXpXeXyXrXiXeXyXyXeXuXiXyXuXyXeXuXeXiX9X0 L.uXiXyXpXyXeXiXeXeXeXkXpXeXyXiXeXyX9XnX0 L.yXrXyXeXpXeXyXrXyXeXpXyXeX",
"kX9XnX0 L.iXeXuXyXpXyXeXeXyXiXpXrXyXuXiXuXeXuXyXeXiXeX9X0 L.iXrXuXyXeXeXiXyXiXeXiXyXeXeXyXeXkX9XnX0 L.iXeXuXyXpXyXeXyXyXiXyXrXyX",
"eX9X0 0 L.rXiXiXeXyXiXrXrXrXiXyXeXiXeXiXuXeXuXpXuXeXiX9Xq L.yXpXeXeXiXeXiXyXkXyXiXkXyXyXyXeXeX9X0 0 L.rXiXiXeXyXiXrXrXrXyXyXeXiX",
"iXiX0 0 L.iXkXkXiXiXkXiXiXiXkXiXiXkXiXkXiXiXkXkXiXiXkXiXq L.iXkXiXiXkXiXkXiXkXiXkXkXkXiXiXiXiXiX0 0 L.iXkXkXiXkXkXkXiXiXkXiXiXkX"
};
