/* XPM */
static char *_18ce3c5bc7243e4ab25567336ebd53d5KPhK1KCVPVExQ7F[] = {
/* columns rows colors chars-per-pixel */
"64 64 256 2 ",
"   c black",
".  c #0000A8",
"X  c #00A800",
"o  c #00A8A8",
"O  c #A80000",
"+  c #A800A8",
"@  c #A85400",
"#  c gray66",
"$  c gray33",
"%  c #5454FC",
"&  c #54FC54",
"*  c #54FCFC",
"=  c #FC5454",
"-  c #FC54FC",
";  c #FCFC54",
":  c gray99",
">  c #ECECEC",
",  c gainsboro",
"<  c #D0D0D0",
"1  c #C0C0C0",
"2  c #B4B4B4",
"3  c gray66",
"4  c #989898",
"5  c gray55",
"6  c #7C7C7C",
"7  c gray44",
"8  c #646464",
"9  c gray33",
"0  c #484848",
"q  c gray22",
"w  c #2C2C2C",
"e  c #202020",
"r  c #FC0000",
"t  c #EC0000",
"y  c #E00000",
"u  c #D40000",
"i  c #C80000",
"p  c #BC0000",
"a  c #B00000",
"s  c #A40000",
"d  c #980000",
"f  c #880000",
"g  c #7C0000",
"h  c #700000",
"j  c #640000",
"k  c #580000",
"l  c #4C0000",
"z  c #400000",
"x  c #FCD8D8",
"c  c #FCB8B8",
"v  c #FC9C9C",
"b  c #FC7C7C",
"n  c #FC5C5C",
"m  c #FC4040",
"M  c #FC2020",
"N  c #FC0000",
"B  c #FCA85C",
"V  c #FC9840",
"C  c #FC8820",
"Z  c #FC7800",
"A  c #E46C00",
"S  c #CC6000",
"D  c #B45400",
"F  c #9C4C00",
"G  c #FCFCD8",
"H  c #FCFCB8",
"J  c #FCFC9C",
"K  c #FCFC7C",
"L  c #FCF85C",
"P  c #FCF440",
"I  c #FCF420",
"U  c #FCF400",
"Y  c #E4D800",
"T  c #CCC400",
"R  c #B4AC00",
"E  c #9C9C00",
"W  c #848400",
"Q  c #706C00",
"!  c #585400",
"~  c #404000",
"^  c #D0FC5C",
"/  c #C4FC40",
"(  c #B4FC20",
")  c #A0FC00",
"_  c #90E400",
"`  c #80CC00",
"'  c #74B400",
"]  c #609C00",
"[  c #D8FCD8",
"{  c #BCFCB8",
"}  c #9CFC9C",
"|  c #80FC7C",
" . c #60FC5C",
".. c #40FC40",
"X. c #20FC20",
"o. c #00FC00",
"O. c #00FC00",
"+. c #00EC00",
"@. c #00E000",
"#. c #00D400",
"$. c #04C800",
"%. c #04BC00",
"&. c #04B000",
"*. c #04A400",
"=. c #049800",
"-. c #048800",
";. c #047C00",
":. c #047000",
">. c #046400",
",. c #045800",
"<. c #044C00",
"1. c #044000",
"2. c #D8FCFC",
"3. c #B8FCFC",
"4. c #9CFCFC",
"5. c #7CFCF8",
"6. c #5CFCFC",
"7. c #40FCFC",
"8. c #20FCFC",
"9. c #00FCFC",
"0. c #00E4E4",
"q. c #00CCCC",
"w. c #00B4B4",
"e. c #009C9C",
"r. c #008484",
"t. c #007070",
"y. c #005858",
"u. c #004040",
"i. c #5CBCFC",
"p. c #40B0FC",
"a. c #20A8FC",
"s. c #009CFC",
"d. c #008CE4",
"f. c #007CCC",
"g. c #006CB4",
"h. c #005C9C",
"j. c #D8D8FC",
"k. c #B8BCFC",
"l. c #9C9CFC",
"z. c #7C80FC",
"x. c #5C60FC",
"c. c #4040FC",
"v. c #2024FC",
"b. c #0004FC",
"n. c #0000FC",
"m. c #0000EC",
"M. c #0000E0",
"N. c #0000D4",
"B. c #0000C8",
"V. c #0000BC",
"C. c #0000B0",
"Z. c #0000A4",
"A. c #000098",
"S. c #000088",
"D. c #00007C",
"F. c #000070",
"G. c #000064",
"H. c #000058",
"J. c #00004C",
"K. c #000040",
"L. c #282828",
"P. c #FCE034",
"I. c #FCD424",
"U. c #FCCC18",
"Y. c #FCC008",
"T. c #FCB400",
"R. c #B420FC",
"E. c #A800FC",
"W. c #9800E4",
"Q. c #8000CC",
"!. c #7400B4",
"~. c #60009C",
"^. c #500084",
"/. c #440070",
"(. c #340058",
"). c #280040",
"_. c #FCD8FC",
"`. c #FCB8FC",
"'. c #FC9CFC",
"]. c #FC7CFC",
"[. c #FC5CFC",
"{. c #FC40FC",
"}. c #FC20FC",
"|. c #FC00FC",
" X c #E000E4",
".X c #C800CC",
"XX c #B400B4",
"oX c #9C009C",
"OX c #840084",
"+X c #6C0070",
"@X c #580058",
"#X c #400040",
"$X c #FCE8DC",
"%X c #FCE0D0",
"&X c #FCD8C4",
"*X c #FCD4BC",
"=X c #FCCCB0",
"-X c #FCC4A4",
";X c #FCBC9C",
":X c #FCB890",
">X c #FCB080",
",X c #FCA470",
"<X c #FC9C60",
"1X c #F0945C",
"2X c #E88C58",
"3X c #DC8854",
"4X c #D08050",
"5X c #C87C4C",
"6X c #BC7848",
"7X c #B47044",
"8X c #A86840",
"9X c #A0643C",
"0X c #9C6038",
"qX c #905C34",
"wX c #885830",
"eX c #80502C",
"rX c #744C28",
"tX c #6C4824",
"yX c #5C4020",
"uX c #543C1C",
"iX c #483818",
"pX c #403018",
"aX c #382C14",
"sX c #28200C",
"dX c #600064",
"fX c #006464",
"gX c #006060",
"hX c #00001C",
"jX c #00002C",
"kX c #302410",
"lX c #480048",
"zX c #500050",
"xX c #000034",
"cX c gray11",
"vX c #4C4C4C",
"bX c gray36",
"nX c gray25",
"mX c gray19",
"MX c #343434",
"NX c #D8F4F4",
"BX c #B8E8E8",
"VX c #9CDCDC",
"CX c #74C8C8",
"ZX c #48C0C0",
"AX c #20B4B4",
"SX c #20B0B0",
"DX c #00A4A4",
"FX c #009898",
"GX c #008C8C",
"HX c #008484",
"JX c #007C7C",
"KX c #007878",
"LX c #007474",
"PX c #007070",
"IX c #006C6C",
"UX c #980088",
/* pixels */
"w w MXMXMXq q nXvXvX0 nXnXq MXMXMXMXMXmXw w MXMXMXw w L.w w w MXq nXq w w e w w MXMXMXw w w e e e w MXMXw L.L.w w w L.e cXcXe e ",
"w w MXMXnXq nX0 vXvX0 nXnXq MXMXMXmXw w w mXMXMXw w L.L.w w MXMXnXnXq w L.e L.w MXq MXw w e e e w MXq q w e L.L.w w e e cXcXe e ",
"w MXw nXnXnX0 0 0 0 nXnXnXMXMXmXw w w mXMXMXMXMXmXmXL.L.w mXw q nXnXMXL.e L.w MXq q MXw L.e e e MXq q q MXL.e L.L.w e cXcXe w L.",
"MXw nX0 0 nXnXnX0 0 nXnXq MXmXw w mXMXMXMXMXMXMXMXMXmXL.mXw q nXq MXw L.e w w q nXq w L.e cXe MXq nXnXq MXL.e e L.L.e cXe e L.L.",
"MXnX0 0 nXq MXq nXnXnXq MXMXw L.w MXq nXnXq MXMXMXmXw w w MXnXnXMXw L.e L.w mXnXnXMXw e cXcXL.MXq q nXmXMXL.e e L.e cXcXe L.L.w ",
"q nXnXnXq MXMXMXnXnXnXq MXw L.e L.MXnXvXnXq MXmXw w L.w mXq nXq w w L.e L.w MXnXq w L.e cXL.w q nXq MXMXmXL.e e e e e e L.L.MXw ",
"nXnXq MXMXMXw w q nXq MXMXL.e e L.MXnXnXq MXMXw L.L.w mXmXMXq MXw L.e L.w MXnXq mXL.e e L.L.mXnXq MXmXMXL.e e e e cXe L.L.w MXMX",
"nXq MXw w w w w MXq q MXL.L.e e w q nXnXMXw L.e L.L.w mXMXMXMXw L.e w mXw q q MXL.e e e L.w q nXq MXw w e e e e L.L.L.L.w w MXq ",
"MXMXw L.e e L.w MXMXMXw L.e e L.w q nXq w e cXe L.w mXMXMXmXw L.e w mXMXmXq MXw L.e e e L.w q nXMXmXMXe e e e L.L.L.L.mXmXMXq MX",
"MXMXw e e L.w w MXMXMXL.e e L.w q nXMXw e cXcXe w mXMXMXmXw L.L.L.mXMXMXMXq mXL.e cXe L.L.mXnXnXMXw L.cXe e L.L.w e L.MXq q q MX",
"MXMXw e L.w w MXMXMXw e L.w w MXnXnXMXL.cXcXe L.w mXq q mXw L.L.w MXMXMXMXq w e e e L.L.w MXnXq mXL.e cXe e L.L.L.L.mXMXq q q MX",
"MXMXw L.w w MXMXMXMXw w w q nXnXnXMXw L.e cXe w mXq nXq mXw w w mXmXmXmXMXMXw L.L.w w MXw MXq MXw L.cXe L.e w L.mXMXMXmXq MXMXMX",
"w MXMXMXMXq nXnXq q q MXMXq nXnXMXw w L.e e L.mXMXnXnXMXmXw w mXmXw w mXMXmXw w w w MXmXw MXMXw L.e e e e L.w w MXMXMXMXMXw w w ",
"MXq q q nXnXq MXMXw w w MXq q MXMXw w L.e e w MXq nXq MXmXw mXMXw w w mXmXw MXMXw MXq mXw MXMXL.e e L.e L.w w mXMXmXMXMXmXL.L.w ",
"q nXnXnXnXnXq w w w mXMXMXMXMXnXnXMXL.e cXe mXq nXMXmXw w mXMXmXL.L.mXmXw q nXMXmXq nXmXw MXL.e e e e L.e w w MXMXMXmXL.e e L.w ",
"q nX0 0 nXq MXMXMXq q MXmXMXMXnXMXw e cXe e mXq q mXw L.w MXMXw e L.mXw mXnXnXMXMXq nXmXw mXe L.L.L.L.w w w mXMXMXmXL.cXe L.L.MX",
"MXq q nXq MXq q nXq MXmXmXMXMXMXw L.e cXe L.mXq MXw L.L.w MXmXL.e w w w MXq nXmXMXnXnXw w L.e L.L.L.L.w w MXMXq mXw cXcXe L.w MX",
"MXMXMXMXMXq nXnXq MXmXw mXMXMXmXw L.e e L.L.mXMXmXw L.w mXMXw L.L.w mXw q q MXmXq nXMXw L.L.L.w w w w MXq nXq MXw L.e e L.w w w ",
"MXMXmXMXq nXnXnXMXmXw mXMXMXmXw L.e e L.w w mXmXw L.w mXMXMXmXw w mXw w MXq mXmXnXq MXw L.L.L.MXw w MXq nXnXq MXL.e w MXnXq MXMX",
"MXmXw mXq nXnXMXMXmXmXMXMXmXw L.L.L.w w MXw mXw L.L.mXw MXq q MXmXmXw w MXMXw MXnXMXw w w MXw w w w q nXq MXmXMXw L.MXnXq w MXw ",
"mXmXw mXq q MXMXmXmXMXMXmXw L.L.w w MXw w L.L.L.L.w w MXq nXq MXmXw L.L.MXw e MXq w e w MXMXw w L.w q q MXmXmXMXmXw MXq MXw w MX",
"mXw mXMXMXMXMXMXmXMXMXmXL.L.w MXMXMXw w L.e e L.w mXMXq nXnXq MXw w L.e L.e w q q e w w MXw w L.L.w q MXmXw mXMXMXmXMXMXw MXw w ",
"w w mXMXMXMXMXMXMXMXMXw L.w MXnXMXw L.e e e e L.w w MXnXnXq MXmXw L.e e L.w MXq mXw mXMXMXw L.L.w MXMXw w mXMXMXMXMXmXw w L.L.L.",
"e w w MXMXMXMXq MXMXmXw w w MXnXw L.e e e e L.w w MXq nXq MXw w L.L.e e L.w q MXw w MXMXw L.L.L.w MXw w w mXMXmXMXMXMXmXL.L.e e ",
"e w w MXMXq nXq mXmXmXw mXMXnXMXw e e cXcXe L.w MXMXq nXMXw L.L.L.e L.L.w MXq w e w MXw L.L.L.e L.w w w mXq q MXmXw L.L.L.e e cX",
"w MXnXnXnXnXq MXw mXmXmXMXMXMXMXL.e e cXe e w mXw q nXMXmXL.e e e e e w w MXmXw w mXMXL.L.e e L.L.w mXMXq q q MXw L.L.cXcXcXe e ",
"MXnXnXnXq MXMXw w w mXMXMXMXMXw L.e cXcXe L.w w MXnXq mXw e cXcXe e L.w MXMXw w w MXmXL.e e L.L.mXMXMXnXnXq MXw L.L.e cXcXcXL.L.",
"nXnXnXq MXw w e w w mXMXMXmXw L.e cXcXe e L.MXmXq q MXw L.e cXe e L.w MXq nXw w mXMXw L.L.L.L.w MXq nXnXq nXMXL.L.e e cXcXL.L.q ",
"nXnXnXMXMXw e e w w mXmXMXw L.e cXcXe e L.w q q nXq MXw L.e e L.L.w MXq nXq mXw MXw L.L.L.L.L.mXq nXnXnXnXq w L.e e cXcXcXL.MXnX",
"MXnXnXq MXw w w w mXMXmXmXw e L.cXe e L.w MXq nXnXq MXw L.e e L.e mXq nXnXq MXmXw e L.w w w w MXnXnXnXq q w L.L.e cXcXcXe L.MXnX",
"MXq q q mXw w w mXMXMXmXw L.e w e e L.w w MXnXnXq MXw L.e e L.e L.MXq nXnXMXw w e L.L.w w mXMXq q q MXq MXw L.e cXcXcXe L.L.MXnX",
"w MXq MXmXw w mXMXMXMXmXw e L.w e L.L.w MXq nXq mXw w L.e L.e L.mXq nXnXq MXw e w L.mXmXmXMXMXq q MXMXMXMXw L.cXcXcXe L.L.mXnXMX",
"w MXMXMXw w mXMXMXmXmXmXw e L.w L.L.w mXMXnXMXmXw L.L.e e e L.mXMXq nXnXq MXe e L.L.mXMXMXMXq MXMXmXmXMXMXL.L.cXe e L.L.w MXMXmX",
"MXmXmXw mXMXMXMXmXw mXw L.e L.L.L.w mXMXq MXMXw w L.e L.w mXMXMXMXnXq q MXw L.L.L.mXMXMXMXMXMXMXmXw mXMXmXL.e cXcXL.w mXw MXmXw ",
"mXw mXmXMXMXMXMXw w L.L.e cXe e L.w mXMXMXMXmXL.e e L.mXMXMXMXMXq q MXMXmXL.L.mXMXMXMXMXMXMXMXmXw mXMXMXw L.e e L.e w MXMXmXw MX",
"w mXnXnXMXMXmXmXL.e e e L.cXcXe L.w MXMXMXmXw e L.e w MXMXq q MXMXMXMXmXL.w MXmXmXmXMXMXMXmXw L.w MXMXmXw L.e e e w mXMXmXw w mX",
"w MXnXnXMXmXL.e e L.mXMXw cXcXe L.w MXmXmXL.e L.e w mXMXq q q MXw MXmXw MXMXmXmXMXMXMXmXw w L.L.MXMXMXw L.L.L.e L.mXMXmXw w mXw ",
"mXMXMXMXw e cXe L.mXq nXL.cXcXe w MXMXmXw e L.e mXMXMXq nXnXMXw MXq w MXnXmXmXMXMXMXmXw w L.L.mXMXMXmXw L.L.e L.MXMXMXmXw w mXMX",
"MXMXmXw e cXcXe w q nXq e cXe L.mXMXmXL.L.e e mXMXMXMXnXq MXw MXq nXq MXMXMXq q MXmXw w L.L.mXMXMXMXw L.L.e L.MXq MXMXw w mXMXMX",
"w L.L.e cXcXe w nXnXq MXe e e w MXMXw L.e e w MXMXq nXq q L.L.MXnXnXq MXq nXq q mXw w L.L.w w MXMXw L.L.L.L.MXq q MXmXw mXMXMXMX",
"w L.e e cXe L.MXnXnXMXL.e e L.w MXmXL.e e L.mXMXw L.w mXw L.L.MXnXnXMXMXq nXq mXL.L.L.L.L.L.w w w L.L.w q nXnXnXq MXmXmXMXMXMXmX",
"L.e e e e L.w q nXMXw e e L.w MXmXw L.e L.w MXw L.e L.L.L.L.w q nXq mXMXMXq mXL.L.e e L.L.L.L.w L.L.w MXnXnXnXnXMXMXMXmXMXMXMXmX",
"e e L.e e L.mXq q w L.e e w mXmXmXL.e L.w MXmXL.e L.L.e L.w MXq q MXw MXMXMXw L.e e e w w L.L.L.L.w MXnXnXnXnXq MXMXMXMXMXMXMXw ",
"e w e L.e L.MXMXw L.e e L.mXMXmXw e L.w MXMXw L.L.L.e e L.w MXq MXw w MXMXmXL.e cXe L.w w mXw w w w q nXnXnXq MXMXw MXmXmXMXMXw ",
"w w L.e e L.mXw e e e L.w mXmXmXL.L.w MXMXMXMXw e cXcXe w MXq MXw L.w MXmXw e e cXL.w w mXw w w w q nXnXnXq MXw w mXMXmXmXMXmXw ",
"w w e e e L.w e e e e L.L.mXw w L.w MXMXMXMXMXL.cXcXcXL.w q MXw L.e L.w L.e e cXe L.w mXw w L.w mXq nXq MXMXmXw mXMXq w mXMXmXw ",
"L.e e e L.w e e e L.e e L.w w w w w mXmXMXMXmXe cXcXe w mXmXw w e cXcXe e e cXe L.w mXMXmXe L.w MXMXMXmXw w w mXMXq q w mXMXmXw ",
"e e L.w L.e e e L.e e L.w w w mXMXMXw L.mXw L.e e e w mXmXmXL.e cXcXcXcXcXcXe L.w mXMXMXw e L.mXMXMXmXw w w mXMXnXnXMXw MXMXw w ",
"e L.w MXw e e w e e L.w mXMXMXMXw w L.L.w L.e e L.w mXmXmXw L.cXcXcXcXcXcXe L.w w MXMXMXL.w mXMXmXw w w w mXMXq nXMXw mXMXmXw w ",
"e L.w w L.e L.e L.L.w w MXMXMXnXw L.L.w w L.L.L.w mXMXmXL.L.L.e e cXcXcXcXL.mXw mXMXMXw e L.w mXw w L.L.w MXq q MXMXmXmXMXmXw e ",
"L.L.w e e e e L.L.mXmXMXmXmXMXq L.L.mXmXw w w w mXMXmXw L.e e e e cXcXcXe w MXMXq nXMXL.L.mXmXw L.L.L.L.mXMXMXMXmXmXMXq MXw w e ",
"MXw L.e e L.w w mXMXMXMXmXmXMXw w w MXmXw mXMXq q MXw L.e L.L.e cXcXcXe L.w MXnXnXq MXw w MXw L.L.e L.w MXMXmXw w mXMXq MXw w w ",
"MXL.e L.L.w w mXMXMXMXmXw w mXmXMXnXMXmXmXMXq q MXmXL.L.L.L.e cXcXcXe L.w MXnXnXq mXMXmXMXmXL.L.e e L.mXMXmXw w w MXq q MXw w mX",
"MXmXL.w w w mXMXMXMXMXw L.L.w MXMXMXMXMXq nXq MXmXw L.w MXw cXcXcXe e w MXq nXnXMXmXMXMXMXmXL.e e e L.mXMXw w w MXq nXMXmXw mXMX",
"MXmXL.w w w mXMXMXMXmXL.e L.w MXq q q nXnXq MXmXw w L.MXw e cXcXcXe w mXMXq nXMXmXMXMXMXmXw L.e cXe L.mXmXw w mXMXnXMXq mXw mXMX",
"e L.L.w w mXMXMXMXmXw e L.w MXq q nXnXnXnXMXmXw w L.L.w e cXcXcXe L.mXMXMXq q MXMXMXnXMXw L.L.e cXe L.mXmXw w MXq nXnXMXq MXMXmX",
"L.e L.w mXMXMXMXmXL.L.e L.MXq q nXnXnXnXq MXmXw L.L.L.e e cXe e e w mXMXq nXMXmXMXMXnXmXw L.e cXcXe L.L.w w mXMXnXnXnXnXMXmXMXw ",
"e e L.mXMXMXMXmXw L.L.L.w MXq nXnXnXnXnXMXmXw w L.L.L.e w L.e e e w MXMXMXMXmXq nXMXMXw L.L.e cXcXcXe L.w w mXq nXnXnXq MXw mXw ",
"e e L.MXMXMXmXw L.e L.w MXq nXnXnXnXnXq MXw w L.L.L.L.w mXL.e e L.mXMXMXMXmXq nXq MXmXL.e e cXcXcXcXe L.w w MXnXnXq nXMXw L.L.w ",
"L.e w MXMXmXw w L.L.w MXq q nXnXnXq MXMXmXw L.L.L.w mXMXmXL.e e w MXMXmXMXMXnXnXMXMXw L.e e cXcXcXcXe L.w MXq nXq nXw w L.L.L.w ",
"L.e w MXMXmXw L.L.w MXMXq nXnXnXq MXMXMXw w L.w w mXMXMXmXL.e L.mXMXMXw MXq nXq MXMXL.L.e cXcXcXcXe L.L.MXMXnXnXnXw w L.L.e L.w ",
"e L.MXMXMXMXL.L.w MXMXMXq nXq q MXMXMXmXw L.L.w mXmXMXmXw L.L.L.mXMXw mXq nXq MXMXw L.e e cXcXcXcXe L.w MXq q nXMXw L.L.e e L.w ",
"L.w MXMXMXw L.L.w MXMXq q q MXMXMXMXmXw w L.L.w mXMXMXmXw L.L.L.w w mXq nXq MXMXw w L.e cXcXcXcXcXe L.w MXq q MXw L.L.e e L.L.w ",
"w MXMXMXw w w w MXMXMXq q MXMXw MXMXmXw w L.L.mXMXMXmXL.w L.L.w w w MXq q MXMXMXw L.L.e cXcXcXcXcXe L.w MXq mXw L.L.e e e L.L.w "
};
